<?xml version="1.0" standalone="no"?>
<!DOCTYPE svg PUBLIC "-//W3C//DTD SVG 20010904//EN"
 "http://www.w3.org/TR/2001/REC-SVG-20010904/DTD/svg10.dtd">
<svg version="1.0" xmlns="http://www.w3.org/2000/svg"
 width="128.000000pt" height="128.000000pt" viewBox="0 0 128.000000 128.000000"
 preserveAspectRatio="xMidYMid meet">
<metadata>
Created by potrace 1.16, written by Peter Selinger 2001-2019
</metadata>
<g transform="translate(0.000000,128.000000) scale(0.100000,-0.100000)"
fill="#000000" stroke="none">
<path d="M415 1101 c-50 -22 -109 -86 -125 -136 -7 -20 -10 -65 -8 -100 5 -82
44 -147 112 -190 44 -27 58 -30 126 -30 68 0 82 3 126 30 68 43 107 108 112
190 2 35 -1 79 -7 98 -16 49 -78 116 -125 138 -54 25 -157 25 -211 0z"/>
<path d="M666 679 c-80 -60 -191 -64 -278 -10 -27 17 -53 31 -58 31 -4 0 -28
-23 -53 -50 -56 -62 -78 -124 -80 -227 l-2 -78 215 -3 216 -2 -4 39 c-2 21 0
41 5 44 4 3 8 -14 8 -36 0 -38 3 -42 26 -45 32 -4 42 -30 26 -72 -9 -24 -8
-32 8 -49 21 -25 48 -27 65 -6 16 19 47 3 52 -27 2 -19 10 -24 46 -26 36 -3
42 0 42 17 0 11 10 27 22 35 19 14 24 14 38 1 23 -20 33 -19 58 8 26 27 27 40
8 57 -22 17 0 58 33 62 47 5 38 88 -11 88 -24 0 -35 27 -20 51 18 28 14 46
-14 68 -23 18 -28 19 -48 5 -30 -19 -56 -8 -63 27 -5 26 -10 29 -44 29 -36 0
-40 -3 -45 -30 -8 -36 -36 -47 -66 -26 -26 19 -17 22 12 4 23 -15 36 -5 45 34
6 23 0 34 -39 72 -25 25 -49 46 -53 45 -5 0 -26 -14 -47 -30z"/>
</g>
</svg>
