<?xml version="1.0" standalone="no"?>
<!DOCTYPE svg PUBLIC "-//W3C//DTD SVG 20010904//EN"
 "http://www.w3.org/TR/2001/REC-SVG-20010904/DTD/svg10.dtd">
<svg version="1.0" xmlns="http://www.w3.org/2000/svg"
 width="128.000000pt" height="128.000000pt" viewBox="0 0 128.000000 128.000000"
 preserveAspectRatio="xMidYMid meet">
<metadata>
Created by potrace 1.16, written by Peter Selinger 2001-2019
</metadata>
<g transform="translate(0.000000,128.000000) scale(0.100000,-0.100000)"
fill="#000000" stroke="none">
<path d="M535 1237 c-5 -33 -13 -46 -36 -60 -28 -15 -33 -15 -60 -1 -17 8 -38
12 -47 9 -19 -6 -92 -129 -92 -154 0 -10 14 -27 30 -39 23 -18 30 -30 30 -57
0 -26 -7 -38 -30 -55 -35 -25 -37 -44 -10 -85 12 -16 27 -45 35 -63 17 -40 37
-48 82 -34 52 16 85 -4 98 -60 l11 -43 94 0 94 0 11 43 c13 56 46 76 98 60 45
-14 65 -6 82 34 8 18 23 47 35 63 27 41 25 60 -10 85 -23 17 -30 29 -30 55 0
27 7 39 30 57 17 12 30 29 30 39 0 26 -73 148 -92 155 -9 3 -30 -2 -47 -10
-27 -14 -32 -14 -60 1 -23 14 -31 27 -36 60 l-6 43 -99 0 -99 0 -6 -43z m151
-54 c5 -20 18 -41 29 -47 11 -6 32 -19 48 -29 26 -18 47 -18 89 -2 8 3 21 -8
32 -26 l19 -32 -26 -23 c-24 -21 -27 -30 -27 -88 0 -58 3 -67 27 -85 l26 -21
-18 -34 c-17 -32 -20 -33 -52 -23 -30 9 -41 7 -88 -18 -47 -26 -55 -34 -60
-67 -6 -36 -9 -38 -45 -38 -36 0 -39 2 -45 38 -5 33 -13 41 -60 67 -47 25 -58
27 -88 18 -33 -10 -35 -9 -51 24 -16 34 -16 35 9 55 22 17 25 27 25 84 0 58
-3 67 -27 88 l-26 23 19 32 c11 18 24 29 32 26 42 -16 63 -16 89 2 16 10 37
23 48 29 11 6 24 27 29 47 9 34 12 37 46 37 34 0 37 -3 46 -37z"/>
<path d="M569 511 c-48 -26 -71 -62 -77 -120 -3 -38 0 -60 16 -90 l21 -40 -34
-21 c-18 -11 -46 -36 -62 -55 -28 -34 -28 -35 -52 -16 -22 17 -23 20 -11 53
16 45 7 83 -30 119 -23 24 -37 29 -75 29 -38 0 -52 -5 -75 -29 -36 -36 -46
-74 -31 -117 12 -32 10 -35 -23 -69 -34 -34 -61 -99 -54 -133 3 -16 47 -17
558 -17 511 0 555 1 558 17 7 34 -20 99 -54 133 -33 34 -35 37 -23 69 15 43 5
81 -31 117 -41 41 -109 41 -150 0 -37 -36 -46 -74 -30 -119 12 -33 11 -36 -11
-53 -24 -19 -24 -18 -52 16 -16 19 -44 44 -62 55 l-34 21 19 37 c37 69 19 160
-40 202 -42 30 -116 35 -161 11z m127 -75 c58 -49 20 -146 -56 -146 -16 0 -41
11 -56 24 -58 49 -20 146 56 146 16 0 41 -11 56 -24z m12 -231 c47 -20 79 -50
103 -97 10 -21 19 -40 19 -43 0 -3 -85 -5 -190 -5 -104 0 -190 2 -190 5 0 3 9
22 19 43 48 94 148 134 239 97z"/>
</g>
</svg>
