<?xml version="1.0" standalone="no"?>
<!DOCTYPE svg PUBLIC "-//W3C//DTD SVG 20010904//EN"
 "http://www.w3.org/TR/2001/REC-SVG-20010904/DTD/svg10.dtd">
<svg version="1.0" xmlns="http://www.w3.org/2000/svg"
 width="128.000000pt" height="128.000000pt" viewBox="0 0 128.000000 128.000000"
 preserveAspectRatio="xMidYMid meet">
<metadata>
Created by potrace 1.16, written by Peter Selinger 2001-2019
</metadata>
<g transform="translate(0.000000,128.000000) scale(0.100000,-0.100000)"
fill="#000000" stroke="none">
<path d="M437 1052 c-182 -182 -195 -202 -159 -235 41 -37 68 -24 189 95 l113
112 0 -333 c0 -210 4 -339 10 -352 15 -27 85 -27 100 0 6 13 10 142 10 352 l0
333 113 -112 c94 -93 119 -112 144 -112 33 0 63 26 63 56 0 12 -70 89 -178
197 -135 135 -183 177 -202 177 -19 0 -67 -42 -203 -178z"/>
<path d="M65 574 c-14 -14 -16 -39 -13 -178 3 -150 5 -165 29 -211 28 -56 91
-109 147 -125 22 -6 185 -10 413 -10 407 0 425 2 496 56 18 13 45 46 60 72 27
45 28 52 31 213 3 144 1 168 -13 182 -19 20 -68 22 -83 5 -5 -7 -12 -78 -14
-158 -4 -164 -15 -197 -78 -235 -33 -19 -51 -20 -400 -20 -349 0 -367 1 -400
20 -63 38 -74 71 -78 235 -2 80 -9 151 -14 158 -15 17 -64 15 -83 -4z"/>
</g>
</svg>
